<svg xmlns="http://www.w3.org/2000/svg" width="38" height="38"><g data-name="Group 3859" fill="#e2e1dd"><path data-name="Ellipse 2" d="M19 0a19 19 0 0 1 7.4 36.507A19.007 19.007 0 0 1 11.6 1.493 18.882 18.882 0 0 1 19 0Zm0 37A18 18 0 0 0 31.728 6.272 18 18 0 1 0 6.272 31.728 17.882 17.882 0 0 0 19 37Z"/><path data-name="Path 162" d="M20.429 27.672h-3.1a.5.5 0 0 1-.5-.5l.011-7.743h-1.6a.5.5 0 0 1-.5-.5v-2.625a.5.5 0 0 1 .5-.5h1.6v-2a3.465 3.465 0 0 1 .88-2.426 4.746 4.746 0 0 1 3.652-1.294 10.9 10.9 0 0 1 1.162.066.5.5 0 0 1 .446.5v2.552a.5.5 0 0 1-.5.5h-.74c-.82 0-.82.506-.82.7v1.475h2.592a.5.5 0 0 1 .466.68l-.982 2.539a.5.5 0 0 1-.466.32h-1.601v7.769a.5.5 0 0 1-.5.487Zm-2.59-1h2.09v-7.769a.5.5 0 0 1 .5-.5h1.767l.6-1.539h-2.367a.5.5 0 0 1-.5-.5v-1.975a1.65 1.65 0 0 1 1.82-1.7c.072 0 .128 0 .162.006h.079v-1.594c-1.662-.111-2.846.212-3.523.95a2.476 2.476 0 0 0-.618 1.691V16.3a.5.5 0 0 1-.5.5h-1.6v1.625h1.6a.5.5 0 0 1 .5.5Z"/></g></svg>