<svg xmlns="http://www.w3.org/2000/svg" width="262.176" height="48.204"><g fill="#fff"><path data-name="Path 123" d="M70.677 12.438a10.85 10.85 0 0 1 3.43-8.033 11.314 11.314 0 0 1 8.217-3.356 11.583 11.583 0 0 1 11.542 11.517 10.89 10.89 0 0 1-3.42 8.106 11.73 11.73 0 0 1-16 .375 10.875 10.875 0 0 1-3.769-8.604m4.112.041a7.266 7.266 0 0 0 2.253 5.481 7.467 7.467 0 0 0 12.708-5.43 7.353 7.353 0 0 0-2.157-5.391 7.135 7.135 0 0 0-5.316-2.188 7.437 7.437 0 0 0-7.49 7.526"/><path data-name="Path 124" d="M23.386 12.484a10.84 10.84 0 0 1 3.432-8.032 11.3 11.3 0 0 1 8.217-3.358A11.582 11.582 0 0 1 46.57 12.61a10.89 10.89 0 0 1-3.417 8.108 11.727 11.727 0 0 1-16 .376 10.872 10.872 0 0 1-3.765-8.606m4.115.041a7.245 7.245 0 0 0 2.246 5.479 7.465 7.465 0 0 0 12.706-5.439 7.344 7.344 0 0 0-2.157-5.383 7.55 7.55 0 0 0-10.628 0 7.237 7.237 0 0 0-2.165 5.339"/><path data-name="Path 125" d="M58.32 1.487v18.2h7.531v3.976H54.196V1.487Z"/><path data-name="Path 126" d="M100.028 23.666V0l15.195 14.833V1.487h4.269v23.535L104.045 9.508v14.158Z"/><path data-name="Path 127" d="M15.719 13.923a5.422 5.422 0 0 0-1.52-1.51 5.44 5.44 0 0 0 .857-.973 6 6 0 0 0 1.018-3.475 5.915 5.915 0 0 0-1.831-4.394 5.978 5.978 0 0 0-2.476-1.541 14.272 14.272 0 0 0-3.756-.418H0v22.131h8.673a14.269 14.269 0 0 0 3.756-.415 6 6 0 0 0 2.475-1.539 5.917 5.917 0 0 0 1.829-4.394 6.008 6.008 0 0 0-1.021-3.474M8.2 5.243a4.246 4.246 0 0 1 2.762.744 2.568 2.568 0 0 1 .93 2.03 2.616 2.616 0 0 1-.891 2.011 4.755 4.755 0 0 1-3.115.618H4.042V5.243Zm3.553 14.107a4.378 4.378 0 0 1-2.835.751H4.077v-5.505H8.6a4.879 4.879 0 0 1 3.185.626 2.655 2.655 0 0 1 .915 2.05 2.61 2.61 0 0 1-.95 2.071"/><path data-name="Path 128" d="M147.624 4.429c-1.953-1.55-2.6-2.128-3.842-3.2v2.342c1.2 1.071 1.853 1.7 3.842 3.362Z"/><path data-name="Path 129" d="M147.624 10.221c-1.953-1.55-2.6-2.128-3.842-3.2v2.34c1.2 1.071 1.853 1.7 3.842 3.362Z"/><path data-name="Path 130" d="M145.791 14.907a16.726 16.726 0 0 1-3.088 8.273h2.143a19.011 19.011 0 0 0 2.719-8.273Z"/><path data-name="Path 131" d="M159.471 19.18a13.31 13.31 0 0 0 4.169-8.775h-5.547V5.594h4.448l-1.2 3.933h1.765l1.692-5.7h-6.706V1.098h-1.741v2.731h-6.818v8.123c0 4.786-.595 7.937-2.754 11.228h2.144c1.884-3.391 2.354-6.52 2.378-11.13h10.443a11.626 11.626 0 0 1-3.649 6c-.025 0-.025 0-.025.025l-.3.233-.3-.233c0-.025 0-.025-.026-.025a11.414 11.414 0 0 1-3.445-5.325h-1.738a13.915 13.915 0 0 0 3.8 6.46l.25.2a16.314 16.314 0 0 1-4.963 2.174v1.829a18.075 18.075 0 0 0 6.418-2.866 18.116 18.116 0 0 0 6.418 2.866v-1.832a16.308 16.308 0 0 1-4.962-2.174Zm-3.119-8.775H151.3V5.594h5.052Z"/><path data-name="Path 132" d="M181.535 1.002h-1.758a15.178 15.178 0 0 1 .375 1.9h-4.907v1.577h2.1l.6 3.371h-2.708v1.543h11.141v-1.55h-2.656l.846-3.366h1.813V2.904h-4.473c-.09-.61-.224-1.2-.376-1.9m.525 6.845h-2.441l-.56-3.366h3.8Z"/><path data-name="Path 133" d="M176.301 23.484h1.644v-3.916h5.779v1.5c0 .459-.217.677-.653.677h-2.186v1.4l.059.25h2.61c1.234 0 1.838-.653 1.838-1.982V10.902h-9.09Zm1.644-11.035h5.778v1.979h-5.778Zm0 3.55h5.778v2.191h-5.778Z"/><path data-name="Path 134" d="M196.926 4.458V2.887h-7.736V1.002h-1.765v6.672h7.7v1.939h-7.7v11.454a2.051 2.051 0 0 0 1.741 2.321 2.006 2.006 0 0 0 .579 0h4.829q2.32 0 2.321-2.466v-.418h-1.644v.25c0 .653-.079.992-.992.992h-4.152a.819.819 0 0 1-.919-.705.848.848 0 0 1 0-.214v-1.252h7.725v-1.377h-7.725v-1.455h7.629v-1.38h-7.629v-1.476h7.629v-1.353h-7.629v-1.573h7.678V6.296h-7.678V4.458Z"/><path data-name="Rectangle 214" d="M207.124 15.797h22.164v1.258h-22.164z"/><path data-name="Path 135" d="M228.286 11.11c-.386 1.51-.57 1.714-.735 1.714-.314 0-.508-.7-.556-2.1-.072-1.426.125-2.853.125-4.327h-4.28V5.062h.968V3.614h5.482V2.237h-5.482V1.099h-1.771v1.137h-7.4V1.099h-1.76v1.137h-5.759v1.377h5.759v1.184h-.7v.991h-5.053v1.063h5.053v1.092h-5.053v1.088h2.95a3.166 3.166 0 0 1-.774.821 3.464 3.464 0 0 1-2.039.61v1.2h.458a2.9 2.9 0 0 0 .637-.065v.8h3.772v1.329a321.9 321.9 0 0 1-5.007.048v1.252a95.194 95.194 0 0 0 10.913-.574v-1.049c-1.329.1-2.785.171-4.164.242v-1.252h4.164v-1h-4.164v-1.132h-1.74v1.136h-3.143a8.165 8.165 0 0 0 1.306-.751 4.155 4.155 0 0 0 1.088-1.62h3.263v.536a1.152 1.152 0 0 0 .977 1.305 1.134 1.134 0 0 0 .329 0h2.084v-.993h-1.794c-.218 0-.339-.1-.339-.314v-.532h2.128V7.943h-4.211V6.851h4.216V5.788h-4.211v-.821h.822V3.614h7.4v1.184h-.751v1.6H218.7v1.377h2.594V7.9a7.027 7.027 0 0 1-.339 2.2c-.46-.265-2.254-1.272-2.254-1.272v1.591c.351.194 1.36.775 1.7.982a7.759 7.759 0 0 1-1.7 1.586v2.041a16.1 16.1 0 0 0 3.045-2.785c.716.5 1.384 1 2.842 2.074v-1.914c-1.284-.865-1.764-1.174-2.262-1.464a8.952 8.952 0 0 0 .508-3.046v-.125h2.734c.024 1.281-.146 2.628-.05 4.037.125 1.885.823 2.829 2.056 2.829.8 0 1.488-.818 1.957-2.419a9.521 9.521 0 0 0 .237-1.109Z"/><path data-name="Path 136" d="M229.287 18.432h-22.164v1.282h4.956a10.217 10.217 0 0 0-.942.58 8.339 8.339 0 0 1-2.325 1.011v1.646c5.133-.313 10.828-.457 17.12-.457.55.334 1.127.693 1.719 1.1v-1.868a68.54 68.54 0 0 0-3.773-2.015h5.41Zm-17.3 2.805c.966-.483 1.934-.991 2.926-1.523h6.634c.615.391 1.522 1.091 2.041 1.4-4.23.024-8.1.047-11.6.125"/><path data-name="Rectangle 215" d="M254.899 2.814h7.277v1.741h-7.277z"/><path data-name="Path 137" d="M256.13 18.528h-1.667c-.218 0-.316-.125-.316-.338V9.661h-1.47v9.206a1.162 1.162 0 0 0 .994 1.309 1.182 1.182 0 0 0 .336 0h2.128Z"/><path data-name="Path 138" d="M254.512 6.295h-3.335v-5.2h-1.765v5.2h-3.38v1.741h3.38v15.448h1.765V8.036h3.336Z"/><path data-name="Path 139" d="m245.519 1.13-.074-.033h-1.968a31.48 31.48 0 0 1-4.153 4.861v2.269a30.72 30.72 0 0 0 6.192-7.1"/><path data-name="Path 140" d="M245.446 6.299h-1.969a31.413 31.413 0 0 1-4.152 4.861v2.269a30.818 30.818 0 0 0 2.638-2.511v12.565h1.741V8.923a20.281 20.281 0 0 0 1.813-2.591Z"/><path data-name="Path 141" d="m254.618 4.564-1.208-3.546h-1.433l1.174 3.546Z"/><path data-name="Path 142" d="M254.899 9.83h3.31v11.189a.59.59 0 0 1-.676.677h-2.309v1.741h3.084c1.088 0 1.642-.6 1.642-1.814V9.831h2.226V8.065h-7.277Z"/><path data-name="Path 143" d="M246.341 14.418a19.734 19.734 0 0 1-1.5 7.284h1.627a24.835 24.835 0 0 0 1.337-7.284V9.565h-1.474Z"/><path data-name="Path 144" d="M38.255 46.765a23.109 23.109 0 0 1-2.687.5l-.072-.522c.4-.063.792-.118 1.177-.181v-2.629h-1.015v-.5h1.015v-2.408h-1.05v-.513h2.6v.513h-1.035v2.409h.9v.5h-.9v2.533c.351-.062.692-.134 1.024-.2Zm.032-3.881h5.617v.477h-2.593l-.279 1.033h2.5v2.983c0 .5-.224.737-.674.737h-.4l-.144-.512h.458a.213.213 0 0 0 .241-.182.2.2 0 0 0 0-.061v-2.486h-1.015v3.119h-.466v-3.119h-.89v3.119h-.487v-3.119h-.978v3.226h-.512v-3.7h1.833l.27-1.032h-2.49Zm.548-.935V40.13h.467v1.358h1.551v-1.64h.512v1.637h1.582V40.13h.472v1.824Z"/><path data-name="Path 145" d="M46.499 47.631a20.93 20.93 0 0 0 2.911-1.127l.342.376a21.3 21.3 0 0 1-2.984 1.186ZM53.95 40.9v4.638h.832v.512h-8.221v-.512h.877V40.9h1.961v-1.052h.512V40.9h1.491v-1.052h.513V40.9Zm-4.551.512h-1.453v1.753h1.453Zm-1.456 4.131h1.456v-1.908h-1.453Zm3.459-4.131h-1.488v1.753h1.488Zm-1.491 4.131h1.491v-1.908h-1.488Zm1.961.979c.9.279 1.9.656 2.993 1.114l-.36.423q-1.524-.687-3-1.187Zm.043-3.353h1.527v-1.753h-1.527Zm0 2.379h1.527v-1.913h-1.527Z"/><path data-name="Path 146" d="M64.977 43.676v1.7h-1.681a5.035 5.035 0 0 0 .751 1.142 14.223 14.223 0 0 0 1.168-.953l.361.368a12.579 12.579 0 0 1-1.16.908 5.164 5.164 0 0 0 1.267.612l-.278.493a5 5 0 0 1-1.6-.944 5.337 5.337 0 0 1-1-1.627h-.233c-.243.241-.486.458-.737.664v1.364l1.456-.332.072.476a19.164 19.164 0 0 0-1.995.558l-.261-.54a.424.424 0 0 0 .224-.395v-.769a7.051 7.051 0 0 1-1.251.639l-.233-.388q-1.159.324-2.534.565l-.091-.493c.386-.062.751-.134 1.126-.206v-2.675h-.917v-.466h.917v-2.409h-.989v-.476h2.5v.476h-1v2.41h.9v.467h-.9v2.571c.342-.081.674-.154 1-.234l.045.422a6.715 6.715 0 0 0 2.077-1.232h-1.45v-1.7Zm-4.951-1.086h5.546v.439h-5.546Zm5.194-.514h-4.791v-2.013h4.791Zm-3.334-1.581h-.977v1.142h.979Zm2.616 3.622h-3.5v.827h3.5Zm-1.215-3.622h-.961v1.142h.961Zm.441 1.142h1.015v-1.142h-1.015Z"/><path data-name="Path 147" d="M69.859 48.099h-.512V42.93c-.3.6-.611 1.187-.952 1.734l-.323-.5a14.78 14.78 0 0 0 1.924-4.269l.5.1c-.2.6-.413 1.195-.638 1.778Zm5.9-7.668v2.674h-1.968v1.213h2.723v.477h-2.378a6.359 6.359 0 0 0 2.453 2.275l-.288.484a6.626 6.626 0 0 1-2.5-2.57v3.11h-.5v-3.13a9.261 9.261 0 0 1-2.7 2.688l-.279-.422a8.272 8.272 0 0 0 2.554-2.436H70.44v-.477h2.849v-1.212h-2.113v-2.679Zm-.512.469h-3.559v1.743h3.559Z"/><path data-name="Path 148" d="M79.012 47.892a9.213 9.213 0 0 0 .342-2.219l.45.036a11.7 11.7 0 0 1-.324 2.326Zm3.005-6.7a32.241 32.241 0 0 1-2.013 3.4c.431-.073.9-.135 1.41-.2-.072-.288-.152-.6-.251-.944l.422-.118a13.381 13.381 0 0 1 .468 2l-.458.126c-.027-.189-.054-.4-.089-.626-.782.117-1.5.242-2.149.375l-.2-.477a.074.074 0 0 1 .046-.009.844.844 0 0 0 .4-.315c.333-.494.656-1.015.98-1.555a23.22 23.22 0 0 0-1.3.2l-.181-.486a.548.548 0 0 0 .376-.269 18.424 18.424 0 0 0 1.06-2.49l.486.125a24.883 24.883 0 0 1-1.142 2.544c.3-.045.626-.081.98-.107.233-.44.467-.9.7-1.357Zm-1.63 6.426a10.034 10.034 0 0 0-.1-1.9l.45-.027a10.684 10.684 0 0 1 .143 1.931Zm1.078-.8a5.968 5.968 0 0 0-.243-1.169l.4-.089a6.739 6.739 0 0 1 .3 1.187Zm.89-6.273a25.188 25.188 0 0 0 4.61-.413l.271.493a28.957 28.957 0 0 1-4.368.413v.594h4.052v1.811h-4.048v.512a8.47 8.47 0 0 1-.918 4.116l-.439-.287a7.844 7.844 0 0 0 .844-3.828Zm4.1 1.527h-3.581v.935h3.585Zm-3.369 2.078h4.088v3.193c0 .5-.225.736-.682.736h-.306l-.134-.512h.405a.216.216 0 0 0 .243-.183.3.3 0 0 0 0-.059v-1.016h-.81v1.718h-.441v-1.719h-.717v1.718h-.442v-1.718h-.736v1.789h-.467Zm1.2.467h-.736v1.214h.736Zm1.159 0h-.719v1.214h.719Zm.44 1.215h.809v-1.214h-.809Z"/><path data-name="Path 149" d="M92.558 41.178a33.144 33.144 0 0 1-1.717 3.533c.375-.063.791-.117 1.241-.171-.064-.341-.154-.718-.25-1.126l.422-.118a14.746 14.746 0 0 1 .44 2.112l-.486.125a6.59 6.59 0 0 0-.053-.548c-.711.1-1.349.206-1.925.332l-.2-.476a.065.065 0 0 1 .046-.01.7.7 0 0 0 .359-.3q.43-.767.835-1.617c-.439.045-.835.1-1.2.161l-.171-.484a.5.5 0 0 0 .369-.251 18.258 18.258 0 0 0 1-2.489l.485.108a24.009 24.009 0 0 1-1.069 2.543c.25-.028.521-.054.809-.063.2-.458.394-.925.585-1.41Zm-2.579 6.8a8.494 8.494 0 0 0 .215-1.94l.449.017a9.646 9.646 0 0 1-.189 2.041Zm1.366-.234a9.351 9.351 0 0 0-.135-1.761l.414-.037a9.864 9.864 0 0 1 .179 1.789Zm1.15-.5a7.18 7.18 0 0 0-.279-1.377l.368-.08a7.413 7.413 0 0 1 .323 1.393Zm.135-3.946v-.478h.818l-.28-1.662h-.432v-.477h1.31a7.6 7.6 0 0 0-.161-.818l.522-.017a8.145 8.145 0 0 1 .134.836h1.185v.477h-.458l-.242 1.662h1.078c-.009-.17-.009-.331-.009-.5v-2.43h.475v2.426c0 .17 0 .332.01.5h1.671v.477h-1.674a16.017 16.017 0 0 0 .226 2.5 7.357 7.357 0 0 0 .927-1.95l.457.171a7.81 7.81 0 0 1-1.231 2.418c.2.728.386 1.089.557 1.089.207 0 .405-.413.6-1.232l.352.4c-.244.961-.558 1.437-.953 1.447-.35-.01-.646-.432-.907-1.267a9.1 9.1 0 0 1-1.378 1.222l-.412-.332a8.946 8.946 0 0 0 1.626-1.484 15.183 15.183 0 0 1-.331-2.983Zm.475 4.422v-3.7h2.3v3.244h-1.824v.459Zm.478-2.3h1.348v-.925h-1.348Zm1.348.477h-1.348v.9h1.348Zm-.384-3.076.234-1.662h-1.128l.27 1.662Zm2.993-2.516a10.718 10.718 0 0 1 .539 1.617l-.495.08a8.5 8.5 0 0 0-.522-1.609Z"/><path data-name="Path 150" d="M101.842 42.678h-.979v-.513h.979v-2.353h.513v2.354h.9v.514h-.9v3.72c.37-.08.719-.151 1.061-.233l.045.486a21.9 21.9 0 0 1-2.679.584l-.09-.53c.387-.063.772-.134 1.15-.2Zm6.68 3.389.5.135v.783c0 .626-.287.925-.854.925h-3.181a.762.762 0 0 1-.862-.647.712.712 0 0 1 0-.216v-3.982l-.8.234v-.522l.8-.243v-2.021h.511v1.869l1.456-.432v-2.1h.512v1.95l1.968-.584v3.3a.707.707 0 0 1-.8.8h-.45l-.144-.512h.6a.251.251 0 0 0 .278-.219.308.308 0 0 0 0-.06v-2.606l-1.456.423v3.793h-.512v-3.64l-1.456.421v4.143a.3.3 0 0 0 .261.341.268.268 0 0 0 .08 0h3.166a.329.329 0 0 0 .376-.363Z"/><path data-name="Path 151" d="M113.537 42.076v6.023h-.5v-4.782a9.815 9.815 0 0 1-1.252 2.687l-.207-.584a8.384 8.384 0 0 0 1.33-3.344h-1.142v-.5h1.267v-1.727h.5v1.726h1.1v.5Zm.449 1.287a7.539 7.539 0 0 1 .729 1.222l-.351.413a8.609 8.609 0 0 0-.665-1.313Zm5.851-2.58h-4.147v1.7h3.838v.514a6.412 6.412 0 0 1-1.366 3.29.113.113 0 0 0-.054.062 6.451 6.451 0 0 0 1.951 1.331l-.333.458a7.053 7.053 0 0 1-1.977-1.4 6.753 6.753 0 0 1-1.94 1.357l-.342-.376a6.88 6.88 0 0 0 1.96-1.357 8.479 8.479 0 0 1-1.159-2.552l.467-.108a8.1 8.1 0 0 0 1.052 2.265l.017-.019A6.21 6.21 0 0 0 119.062 43h-3.372v.827a8.3 8.3 0 0 1-1.187 4.323l-.376-.449a7 7 0 0 0 1.051-3.874v-3.552h4.665Z"/><path data-name="Path 152" d="m146.064 39.829.432.251a25.791 25.791 0 0 1-2.417 2.8c1.536-.09 3.262-.17 5.194-.243-.4-.5-.836-1-1.312-1.51l.4-.25a21.761 21.761 0 0 1 2.3 2.795l-.448.278a13.18 13.18 0 0 0-.576-.826q-3.573.093-6.525.368l-.072-.548a1.05 1.05 0 0 0 .5-.234 22.166 22.166 0 0 0 2.517-2.88m-2.358 4.453h5.95v3.811h-.513v-.551h-4.925v.559h-.512Zm5.437.477h-4.925v2.3h4.925Z"/><path data-name="Path 153" d="M154.433 43.675q-.432-.469-1.05-1.024l.341-.342c.53.486.877.836 1.069 1.043Zm.046-2.408a14.235 14.235 0 0 0-1.089-.962l.324-.351c.549.45.917.773 1.106.962Zm-.954 6.8a33.182 33.182 0 0 0 .81-3.478l.467.126c-.341 1.69-.611 2.849-.8 3.486Zm1.943-5.015a4.607 4.607 0 0 1-.18 1.088l-.4-.063a3.533 3.533 0 0 0 .206-1.042Zm1.644-2.776c-.4.637-.845 1.284-1.338 1.931.279-.036.584-.072.907-.1a8.477 8.477 0 0 0-.187-.548l.368-.063a9.111 9.111 0 0 1 .413 1.258l-.423.073c-.027-.116-.045-.225-.072-.332-.584.063-1.126.134-1.61.233l-.151-.413a.855.855 0 0 0 .394-.279c.17-.233.351-.467.531-.71-.3.036-.585.081-.845.134l-.153-.413a.616.616 0 0 0 .342-.25 9.409 9.409 0 0 0 .626-1.1l.413.125c-.2.368-.413.751-.656 1.127a4.861 4.861 0 0 1 .566-.054c.163-.261.324-.522.5-.8Zm-1.529 4.187h5.43v1.384h-4.6l-.09.585h4.925v.711a.808.808 0 0 1-.918.916h-2.253l-.144-.477h2.346a.406.406 0 0 0 .466-.337.446.446 0 0 0 0-.121v-.3h-4.988l.207-1.385h4.529v-.572h-4.916Zm.342-.386a6.283 6.283 0 0 0-.08-1.016l.349-.036a6.761 6.761 0 0 1 .108 1.044Zm.844-.154a5.72 5.72 0 0 0-.179-.916l.332-.073a5.773 5.773 0 0 1 .225.936Zm2.607-3.326h-2.099v-.368h.783a6.23 6.23 0 0 0-.162-.521l.512-.08c.063.2.117.395.162.6h.808Zm-1.995.477h1.825v.368h-1.829Zm.028.846h1.8v.368h-1.8Zm1.743 2.121h-1.707v-1.284h1.707Zm-.368-.916h-.97v.548h.97Zm2.786-2.814a22.506 22.506 0 0 1-1.439 1.967c.307-.044.64-.08 1-.107-.063-.18-.135-.368-.216-.566l.369-.081a9.3 9.3 0 0 1 .449 1.266l-.422.073c-.027-.1-.045-.208-.073-.315-.626.072-1.2.154-1.717.242l-.153-.413a.831.831 0 0 0 .405-.279q.3-.363.593-.751a9.81 9.81 0 0 0-.854.1l-.134-.413a.544.544 0 0 0 .333-.234 9.761 9.761 0 0 0 .62-1.1l.413.126c-.2.368-.413.751-.656 1.126.17-.017.369-.027.576-.036.17-.26.35-.521.521-.8Zm-1.609 2.741a4.557 4.557 0 0 1-.18 1.088l-.405-.063a3.473 3.473 0 0 0 .207-1.042Zm.5 1.033a6.407 6.407 0 0 0-.118-1.024l.351-.044a6.123 6.123 0 0 1 .144 1.043Zm.876-.089a5.872 5.872 0 0 0-.215-.989l.333-.081a5.722 5.722 0 0 1 .25 1Z"/><path data-name="Path 154" d="M167.117 40.969a33.578 33.578 0 0 1-1.842 3.623q.645-.094 1.429-.189-.094-.471-.243-1.024l.422-.109a13.431 13.431 0 0 1 .422 2.032l-.449.125c-.018-.17-.037-.35-.063-.539-.791.089-1.51.2-2.157.314l-.179-.476a.073.073 0 0 1 .035-.009h.018a.725.725 0 0 0 .359-.3c.3-.512.585-1.043.862-1.6-.476.046-.916.091-1.32.144l-.154-.486a.479.479 0 0 0 .369-.25 18.923 18.923 0 0 0 1.06-2.482l.486.117a25.5 25.5 0 0 1-1.126 2.535c.287-.037.6-.063.943-.09.226-.477.441-.979.656-1.491Zm-2.84 6.984a8.864 8.864 0 0 0 .25-2.128l.485.018a11.448 11.448 0 0 1-.216 2.247Zm1.473-.305a9.4 9.4 0 0 0-.243-1.8l.45-.062a10.5 10.5 0 0 1 .287 1.824Zm1.016-.71a6.661 6.661 0 0 0-.351-1.24l.4-.116a7.643 7.643 0 0 1 .395 1.252Zm1.313-.971a27.515 27.515 0 0 1-.45 1.9l-.5-.17q.3-.943.513-1.86Zm4.152-5.437v4.583h-4.548V40.53h1.555l.234-.764.512.081-.225.683Zm-4.035 4.107h3.524v-3.63h-3.524Zm2.275-3.163c-.215.305-.432.592-.638.854.17.135.333.27.5.422a7.56 7.56 0 0 0 .691-1l.432.18c-.269.387-.539.751-.808 1.088.242.226.484.448.718.675l-.342.314c-.215-.225-.44-.439-.674-.646a8.605 8.605 0 0 1-1.042.97l-.35-.286a10.261 10.261 0 0 0 1.087-.953c-.17-.143-.341-.287-.513-.422a7.842 7.842 0 0 1-.781.71l-.359-.279a8.633 8.633 0 0 0 .8-.692c-.224-.171-.459-.332-.7-.5l.35-.323c.225.153.44.314.656.484a5.7 5.7 0 0 0 .548-.772Zm.97 5.688c0 .531-.243.791-.736.791h-1.366c-.5 0-.737-.26-.737-.791V45.85h.5v1.385a.22.22 0 0 0 .185.25.236.236 0 0 0 .065 0h1.3a.266.266 0 0 0 .306-.221.3.3 0 0 0 0-.084v-.594l.477.144Zm-1.646-1.974a8.821 8.821 0 0 1 .9.935l-.405.287a6.714 6.714 0 0 0-.853-.961Zm2.2.611a11.986 11.986 0 0 1 .711 1.878l-.5.206a10.582 10.582 0 0 0-.611-1.924Z"/><path data-name="Path 155" d="M174.977 43.954a14.559 14.559 0 0 0 2.2-4.143l.468.126c-.234.584-.476 1.15-.727 1.707v6.453h-.5v-5.464a24.22 24.22 0 0 1-1.151 1.833Zm4.683-.934-2.022.18v-.5l2-.187c-.02-.352-.029-.711-.028-1.079v-1.591h.512v1.582c0 .359.01.7.028 1.034l3.216-.3v.513l-3.19.287a9.814 9.814 0 0 0 .574 3c.405 1 .854 1.5 1.357 1.51.315-.009.626-.477.953-1.4l.333.422c-.387 1.015-.81 1.518-1.286 1.518-.674.009-1.258-.565-1.752-1.707a9.982 9.982 0 0 1-.692-3.3m1.806-3.019a11.675 11.675 0 0 1 1.393 1.187l-.394.35a10.073 10.073 0 0 0-1.348-1.213Z"/><path data-name="Path 156" d="M188.718 46.783a23.825 23.825 0 0 1-2.785.557l-.082-.52 1.252-.189v-2.693h-1.051v-.5h1.051V41.06h-1.159v-.517h2.74v.514h-1.07v2.378h1v.5h-1v2.6c.36-.063.711-.134 1.06-.207Zm5.178-6.489v3.981h-2.041v1.126h2.265v.506h-2.265v1.312h2.481v.513h-5.724v-.513h2.74v-1.312h-2.391v-.512h2.391v-1.127h-2.039v-3.981Zm-2.544.475h-1.527v1.312h1.527Zm0 1.789h-1.527v1.252h1.527Zm.5-.477h1.527v-1.318h-1.527Zm0 1.727h1.527v-1.252h-1.527Z"/></g></svg>