<svg xmlns="http://www.w3.org/2000/svg" width="38" height="37.462"><g data-name="Group 3858" fill="#e2e1dd"><path data-name="Path 157" d="M19.011 0a19.023 19.023 0 0 1 13.324 5.383 18.542 18.542 0 0 1 .294 26.4 19.07 19.07 0 0 1-13.351 5.674h-.279a19.026 19.026 0 0 1-13.326-5.383 18.542 18.542 0 0 1-.294-26.4A19.071 19.071 0 0 1 18.73 0ZM19 36.462h.265a18.011 18.011 0 0 0 12.646-5.378 17.545 17.545 0 0 0-.278-24.983 18.029 18.029 0 0 0-12.627-5.1h-.267A18.011 18.011 0 0 0 6.086 6.377a17.544 17.544 0 0 0 .279 24.983 18.031 18.031 0 0 0 12.63 5.102Z"/><path data-name="Path 158" d="M19.246 28.164a.5.5 0 0 1-.23-.944 22.981 22.981 0 0 0 6.024-4.1 6.924 6.924 0 0 0 2.2-5.25 6.7 6.7 0 0 0-2.5-4.882 8.888 8.888 0 0 0-5.853-1.985 9 9 0 0 0-5.834 2.152 6.424 6.424 0 0 0-2.316 4.936c.057 3.935 3.335 6.744 7.8 6.681h.007a.5.5 0 0 1 .007 1 9.243 9.243 0 0 1-6.279-2.138 7.377 7.377 0 0 1 .125-11.231 10 10 0 0 1 6.48-2.4 9.9 9.9 0 0 1 6.509 2.218 7.689 7.689 0 0 1 2.859 5.609 7.873 7.873 0 0 1-2.48 5.986 23.9 23.9 0 0 1-6.284 4.3.5.5 0 0 1-.235.048Z"/><path data-name="Path 159" d="M14.127 20.537a.5.5 0 0 1-.5-.493l-.052-3.571a.5.5 0 0 1 .493-.507h.007a.5.5 0 0 1 .5.493l.045 3.071 1.514-.022a.5.5 0 0 1 .014 1l-2.014.029Z"/><path data-name="Line 30" d="M17.24 20.486a.5.5 0 0 1-.5-.493l-.052-3.553a.5.5 0 0 1 .493-.507.5.5 0 0 1 .507.493l.052 3.553a.5.5 0 0 1-.493.507Z"/><path data-name="Path 160" d="M18.755 20.497a.5.5 0 0 1-.5-.493l-.053-3.609a.5.5 0 0 1 .915-.287l1.46 2.168-.028-1.9a.5.5 0 1 1 1-.015l.053 3.586a.5.5 0 0 1-.915.287l-1.46-2.168.028 1.927a.5.5 0 0 1-.493.507Z"/><path data-name="Path 161" d="M22.825 20.406a.5.5 0 0 1-.5-.493l-.052-3.576a.5.5 0 0 1 .493-.507l2.075-.029h.007a.5.5 0 0 1 .007 1l-1.575.022.037 2.576 1.545-.022h.007a.5.5 0 0 1 .007 1l-2.045.029Z"/><path data-name="Line 31" d="M22.801 18.725a.5.5 0 0 1-.5-.493.5.5 0 0 1 .493-.507l1.892-.027a.5.5 0 0 1 .507.493.5.5 0 0 1-.492.507l-1.893.027Z"/></g></svg>