<svg xmlns="http://www.w3.org/2000/svg" width="108.294" height="50.886"><defs><clipPath id="a"><path data-name="Rectangle 294" fill="none" d="M0 0h108.294v50.886H0z"/></clipPath></defs><g data-name="Group 629"><g data-name="Group 628" clip-path="url(#a)" fill="#fff"><path data-name="Path 228" d="M64.049 11.272a9.83 9.83 0 0 1 3.109-7.28A10.247 10.247 0 0 1 74.605.951a10.051 10.051 0 0 1 7.368 3.068 10.023 10.023 0 0 1 3.086 7.369 9.868 9.868 0 0 1-3.1 7.346 10.631 10.631 0 0 1-14.5.339 9.86 9.86 0 0 1-3.41-7.8m3.727.038a6.574 6.574 0 0 0 2.038 4.967 6.768 6.768 0 0 0 9.536-.035 6.7 6.7 0 0 0 1.979-4.885 6.662 6.662 0 0 0-1.954-4.886 6.468 6.468 0 0 0-4.81-1.982 6.538 6.538 0 0 0-4.823 1.982 6.57 6.57 0 0 0-1.966 4.839"/><path data-name="Path 229" d="M21.194 11.314a9.826 9.826 0 0 1 3.112-7.28A10.247 10.247 0 0 1 31.752.991a10.059 10.059 0 0 1 7.368 3.068 10.025 10.025 0 0 1 3.086 7.371 9.874 9.874 0 0 1-3.1 7.347 10.63 10.63 0 0 1-14.5.336 9.854 9.854 0 0 1-3.412-7.8m3.73.037a6.563 6.563 0 0 0 2.036 4.966 6.768 6.768 0 0 0 9.538-.033 6.7 6.7 0 0 0 1.978-4.883 6.651 6.651 0 0 0-1.954-4.883 6.842 6.842 0 0 0-9.632 0 6.555 6.555 0 0 0-1.966 4.838"/><path data-name="Path 230" d="M52.854 1.348v16.5h6.825v3.6H49.117v-20.1Z"/><path data-name="Path 231" d="M90.654 21.448V0l13.771 13.442V1.348h3.869v21.327L94.3 8.616v12.832Z"/><path data-name="Path 232" d="M14.246 12.613a4.947 4.947 0 0 0-1.377-1.368 4.938 4.938 0 0 0 .776-.881 5.443 5.443 0 0 0 .923-3.149 5.358 5.358 0 0 0-1.659-3.982 5.415 5.415 0 0 0-2.242-1.391 12.925 12.925 0 0 0-3.408-.379H0v20.051h7.86a12.909 12.909 0 0 0 3.409-.376 5.436 5.436 0 0 0 2.243-1.393 5.368 5.368 0 0 0 1.658-3.983 5.448 5.448 0 0 0-.924-3.149M7.432 4.755a3.848 3.848 0 0 1 2.5.673 2.328 2.328 0 0 1 .84 1.841 2.365 2.365 0 0 1-.808 1.822c-.527.484-1.465.561-2.816.561H3.663v-4.9Zm3.219 12.785a3.975 3.975 0 0 1-2.569.685H3.7v-4.991h4.1c1.383 0 2.347.079 2.886.571a2.409 2.409 0 0 1 .829 1.858 2.367 2.367 0 0 1-.861 1.877"/><path data-name="Path 233" d="M16.318 37.663c-1.348-1.07-1.794-1.465-2.651-2.212v1.616c.827.739 1.278 1.173 2.651 2.321Z"/><path data-name="Path 234" d="M16.318 41.66c-1.348-1.07-1.794-1.465-2.651-2.212v1.616c.827.739 1.278 1.173 2.651 2.321Z"/><path data-name="Path 235" d="M15.054 44.893a11.551 11.551 0 0 1-2.132 5.71H14.4a13.108 13.108 0 0 0 1.876-5.71Z"/><path data-name="Path 236" d="M24.5 47.843a9.191 9.191 0 0 0 2.876-6.056h-3.833v-3.32h3.07l-.827 2.714H27l1.167-3.932h-4.624v-1.886h-1.2v1.886h-4.7v5.6c0 3.3-.411 5.478-1.9 7.749h1.479c1.3-2.341 1.626-4.5 1.64-7.682h7.208a8.02 8.02 0 0 1-2.52 4.137c-.016 0-.016 0-.016.017l-.21.161-.21-.161c0-.017 0-.017-.017-.017a7.866 7.866 0 0 1-2.378-3.674h-1.2a9.6 9.6 0 0 0 2.625 4.459l.173.138a11.247 11.247 0 0 1-3.425 1.5v1.262a12.5 12.5 0 0 0 4.43-1.978 12.5 12.5 0 0 0 4.429 1.978v-1.256a11.259 11.259 0 0 1-3.425-1.5Zm-2.153-6.056h-3.492v-3.32h3.487Z"/><path data-name="Path 237" d="M39.72 35.3h-1.215a10.553 10.553 0 0 1 .259 1.313h-3.386v1.084h1.451l.417 2.328h-1.868v1.065h7.69v-1.068h-1.835l.584-2.328h1.251V36.61h-3.086c-.062-.421-.155-.831-.262-1.313m.362 4.725H38.4l-.384-2.328h2.62Z"/><path data-name="Path 238" d="M36.109 50.812h1.134v-2.7h3.988v1.034c0 .317-.15.467-.45.467h-1.509v.964l.041.171h1.8c.851 0 1.268-.451 1.268-1.368v-7.251h-6.272Zm1.134-7.612h3.988v1.366h-3.988Zm0 2.45h3.988v1.512h-3.988Z"/><path data-name="Path 239" d="M50.343 37.683V36.6H45v-1.3h-1.214v4.6H49.1v1.335h-5.314v7.908a1.416 1.416 0 0 0 1.6 1.6h3.334q1.6 0 1.6-1.7v-.29h-1.133v.173c0 .45-.054.684-.684.684h-2.865a.565.565 0 0 1-.638-.632v-.868h5.331v-.951H45v-1h5.265v-.951H45V44.19h5.265v-.935H45v-1.084h5.3v-3.22H45v-1.268Z"/><path data-name="Rectangle 292" d="M57.381 45.507h15.295v.868H57.381z"/><path data-name="Path 240" d="M71.985 42.272c-.266 1.042-.393 1.183-.507 1.183-.217 0-.351-.484-.384-1.452-.05-.984.085-1.968.085-2.986h-2.954V38.1h.667v-1h3.784v-.951h-3.784v-.784h-1.218v.784h-5.105v-.784h-1.218v.784H57.38v.951h3.971v.818h-.484v.682H57.38v.734h3.487v.751H57.38v.751h2.035a2.221 2.221 0 0 1-.533.567 2.4 2.4 0 0 1-1.407.42v.826h.316a2 2 0 0 0 .44-.045v.551h2.6v.917c-1.085.017-2.3.033-3.454.033v.868a65.782 65.782 0 0 0 7.528-.4v-.718c-.918.067-1.922.117-2.873.167v-.867h2.873v-.685h-2.87v-.784h-1.2v.784h-2.17a5.5 5.5 0 0 0 .9-.517 2.858 2.858 0 0 0 .75-1.117h2.253v.364a.8.8 0 0 0 .9.9h1.438v-.684H63.67c-.15 0-.234-.066-.234-.217v-.366h1.472v-.751H62v-.751h2.906V38.6H62v-.567h.567V37.1h5.105v.818h-.517v1.1h-1.79v.951h1.79v.083a4.812 4.812 0 0 1-.234 1.519c-.317-.184-1.556-.879-1.556-.879v1.1c.242.134.938.535 1.172.677a5.32 5.32 0 0 1-1.172 1.095v1.409a11.139 11.139 0 0 0 2.107-1.92c.494.346.955.692 1.961 1.432v-1.321c-.886-.6-1.217-.81-1.561-1.011a6.162 6.162 0 0 0 .351-2.1v-.083h1.886c.016.884-.1 1.818-.035 2.786.084 1.3.568 1.952 1.419 1.952.55 0 1.027-.564 1.351-1.668a6.557 6.557 0 0 0 .164-.766Z"/><path data-name="Path 241" d="M72.676 47.326H57.38v.884h3.42a7.043 7.043 0 0 0-.65.4 5.781 5.781 0 0 1-1.605.7v1.136c3.546-.216 7.473-.315 11.815-.315.379.23.775.478 1.186.757V49.6a47.931 47.931 0 0 0-2.6-1.391h3.734Zm-11.942 1.935a82.389 82.389 0 0 0 2.019-1.051h4.581c.423.27 1.05.753 1.408.968-2.92.016-5.589.033-8.008.083"/><path data-name="Rectangle 293" d="M90.351 36.548h5.022v1.201h-5.022z"/><path data-name="Path 242" d="M91.2 47.392h-1.15c-.15 0-.217-.083-.217-.233v-5.886h-1.018v6.353a.8.8 0 0 0 .918.9H91.2Z"/><path data-name="Path 243" d="M90.084 38.95h-2.3v-3.587h-1.22v3.587h-2.336v1.2h2.336v10.662h1.218V40.151h2.3Z"/><path data-name="Path 244" d="m83.878 35.386-.051-.023h-1.358a21.668 21.668 0 0 1-2.869 3.355v1.566a21.232 21.232 0 0 0 4.274-4.9"/><path data-name="Path 245" d="M83.827 38.953H82.47a21.715 21.715 0 0 1-2.87 3.354v1.566a21.05 21.05 0 0 0 1.821-1.733v8.673h1.2V40.764a14.067 14.067 0 0 0 1.251-1.788Z"/><path data-name="Path 246" d="m90.158 37.755-.834-2.447h-.992l.811 2.447Z"/><path data-name="Path 247" d="M90.351 41.39h2.285v7.721a.408.408 0 0 1-.467.467h-1.593v1.2H92.7c.751 0 1.135-.417 1.135-1.252V41.39h1.535v-1.218h-5.019Z"/><path data-name="Path 248" d="M84.445 44.556a13.592 13.592 0 0 1-1.033 5.027h1.127a17.086 17.086 0 0 0 .924-5.027v-3.35h-1.018Z"/></g></g></svg>