<svg xmlns="http://www.w3.org/2000/svg"><defs><clipPath id="a"><path data-name="Rectangle 1449" fill="currentColor" d="M0 0h40v40H0z"/></clipPath></defs><g data-name="Group 787"><g data-name="Group 786" transform="translate(0 -.001)" clip-path="url(#a)" fill="currentColor"><path data-name="Path 562" d="M21.255 11.863c0 .144.019.209 0 .255a3.532 3.532 0 0 0 .672 4.037 5.105 5.105 0 0 1 .452.65 1.758 1.758 0 0 0 1.742 1.117 1.48 1.48 0 0 1 1.328 1.721.847.847 0 0 1-.877.8c-1.4.018-2.795.046-4.187-.031a1.867 1.867 0 0 1-1.057-.641c-.411-.435-.668-1.016-1.087-1.441a11.477 11.477 0 0 0-1.54-1.213c-.6-.427-1.254-.772-1.816-1.237a1.556 1.556 0 0 1-.1-2.39c.407-.444.779-.918 1.182-1.366a.676.676 0 0 1 .4-.253c1.619-.017 3.239-.011 4.895-.011m-1.026.785c-1.213 0-2.3 0-3.4.006a.529.529 0 0 0-.344.142c-.413.439-.82.885-1.205 1.348a.726.726 0 0 0 .083 1.105 4.494 4.494 0 0 0 1.088.8 7.369 7.369 0 0 1 3.4 3.121.977.977 0 0 0 .936.505c1.132-.012 2.265 0 3.4-.008a3.2 3.2 0 0 0 .472-.072c-.055-.582-.284-1-.838-.928a1.694 1.694 0 0 1-1.882-1.087 5.653 5.653 0 0 0-.548-.79 4.564 4.564 0 0 1-1.163-4.148"/><path data-name="Path 563" d="M27.756 28.089c-.483.035-.753-.3-1.013-.651-.419-.564-.541-.567-.95-.025q-1.09 1.445-2.181.013c-.424-.556-.547-.557-.953-.008-.707.956-1.467.957-2.184 0-.415-.553-.53-.552-.951.007-.72.955-1.44.951-2.181-.014-.418-.545-.535-.543-.957.019-.7.933-1.45.942-2.154.026-.462-.6-.562-.6-1.025.018a1.137 1.137 0 0 1-1.052.612c0-.24-.1-.554.018-.7a4.894 4.894 0 0 1 1.125-1.073c.494-.313 1.025-.071 1.486.54s.555.622 1.021.01a1.176 1.176 0 0 1 2.12-.016c.479.628.555.628 1.015.011a1.177 1.177 0 0 1 2.118 0c.465.621.551.621 1.014 0a1.173 1.173 0 0 1 2.116 0c.467.618.542.618 1.015 0a1.174 1.174 0 0 1 2.117.013c.266.354.744.632.436 1.222"/><path data-name="Path 564" d="M12.2 25.526c-.187-.537-.029-.777.439-1.006a1.992 1.992 0 0 1 2.13.009.906.906 0 0 0 1.058 0 1.81 1.81 0 0 1 2.071-.013 1.011 1.011 0 0 0 1.162-.014 1.665 1.665 0 0 1 1.912-.018 1.086 1.086 0 0 0 1.265 0 1.628 1.628 0 0 1 1.859-.006 1.057 1.057 0 0 0 1.26 0c.839-.585 1.593-.174 2.308.247.16.094.152.475.221.723l-.138.1c-.3-.122-.619-.221-.907-.372a1 1 0 0 0-1.109 0 1.713 1.713 0 0 1-2.013 0 .951.951 0 0 0-1.107.007 1.749 1.749 0 0 1-2.017-.005 1 1 0 0 0-1.161.022 1.692 1.692 0 0 1-1.921.012 1.168 1.168 0 0 0-1.317.014 1.476 1.476 0 0 1-1.655.065 1.445 1.445 0 0 0-1.68.014 2.947 2.947 0 0 1-.663.221"/><path data-name="Rectangle 1448" d="M12.167 22.176H27.79v.715H12.167z"/><path data-name="Path 565" d="M20 40a20 20 0 1 1 20-20 20.023 20.023 0 0 1-20 20M20 .71A19.29 19.29 0 1 0 39.29 20 19.312 19.312 0 0 0 20 .71"/></g></g></svg>