<svg xmlns="http://www.w3.org/2000/svg"><defs><clipPath id="a"><path data-name="Rectangle 1453" fill="currentColor" d="M0 0h40v40H0z"/></clipPath></defs><g data-name="Group 792"><g data-name="Group 791" transform="translate(0 -.001)" clip-path="url(#a)" fill="currentColor"><path data-name="Path 568" d="M16.98 7.812h6.094c0 1.155-.076 2.276.033 3.381a2.533 2.533 0 0 0 .723 1.476c.956.9 2.06 1.643 3.026 2.533a2.068 2.068 0 0 1 .628 1.312q.092 3.5 0 7a2.078 2.078 0 0 1-.619 1.316 25.69 25.69 0 0 1-2.883 2.352 2 2 0 0 0-.924 1.989c.061.972.014 1.95.014 3.024H16.98c0-1.1.076-2.189-.032-3.259a2.628 2.628 0 0 0-.711-1.5 18.579 18.579 0 0 0-2.617-2.141 2.387 2.387 0 0 1-1.149-2.338c.091-2.142-.013-4.291.058-6.434a2.216 2.216 0 0 1 .671-1.388 38.031 38.031 0 0 1 2.968-2.429 1.8 1.8 0 0 0 .83-1.7c-.074-1.039-.018-2.087-.018-3.193m5.124 23.45a11.487 11.487 0 0 0-.011-1.594 3.232 3.232 0 0 1 1.674-3.571c.734-.442 1.325-1.116 2.035-1.607a1.69 1.69 0 0 0 .758-1.617 104.193 104.193 0 0 1 0-5.646 1.908 1.908 0 0 0-.887-1.784 28.888 28.888 0 0 1-2.884-2.354 2.444 2.444 0 0 1-.658-1.416 27.032 27.032 0 0 1-.03-2.888h-4.018c-.166 1.388.034 2.907-.575 3.954-.655 1.125-2.069 1.807-3.152 2.683-.117.095-.272.172-.338.294a3.207 3.207 0 0 0-.559 1.222 103.384 103.384 0 0 0 0 6.1 2.039 2.039 0 0 0 .607 1.3c1.055.962 2.221 1.8 3.289 2.753a1.8 1.8 0 0 1 .533 1.112c.074 1 .025 2.007.025 3.061Z"/><path data-name="Path 569" d="M20 40a20 20 0 1 1 20-20 20.023 20.023 0 0 1-20 20M20 .71A19.29 19.29 0 1 0 39.29 20 19.312 19.312 0 0 0 20 .71"/></g></g></svg>