<svg data-name="Group 800" xmlns="http://www.w3.org/2000/svg"><defs><clipPath id="a"><path data-name="Rectangle 1457" fill="currentColor" d="M0 0h40v40H0z"/></clipPath></defs><g data-name="Group 799" clip-path="url(#a)" fill="currentColor"><path data-name="Path 572" d="M19.902 7.881c2.3 3.977 4.529 7.813 6.726 11.666a1.083 1.083 0 0 1-.008.906c-2.186 3.858-4.4 7.7-6.682 11.668-2.062-3.556-3.986-7.035-6.081-10.407a2.8 2.8 0 0 1 .007-3.416c2.067-3.36 3.97-6.82 6.039-10.416m0 1.613c-1.983 3.448-3.907 6.76-5.777 10.1a1.369 1.369 0 0 0 .14 1.1c1.365 2.424 2.772 4.823 4.169 7.229.476.819.96 1.634 1.51 2.568 1.981-3.444 3.877-6.729 5.75-10.028a.988.988 0 0 0 .07-.812c-1.911-3.355-3.853-6.693-5.861-10.158"/><path data-name="Path 573" d="M20 40a20 20 0 1 1 20-20 20.022 20.022 0 0 1-20 20M20 .71A19.29 19.29 0 1 0 39.29 20 19.312 19.312 0 0 0 20 .71"/></g></svg>