<svg xmlns="http://www.w3.org/2000/svg"><defs><clipPath id="a"><path data-name="Rectangle 1455" fill="currentColor" d="M0 0h40v40H0z"/></clipPath></defs><g data-name="Group 797" clip-path="url(#a)" fill="currentColor"><path data-name="Path 570" d="M9.916 19.94c0-1.617.025-3.235-.013-4.851a1.3 1.3 0 0 1 .739-1.35c2.945-1.659 5.855-3.382 8.8-5.033a1.423 1.423 0 0 1 1.185.016q4.419 2.487 8.772 5.09a1.57 1.57 0 0 1 .656 1.125q.077 5.076 0 10.153a1.572 1.572 0 0 1-.666 1.122q-4.352 2.6-8.778 5.076a1.424 1.424 0 0 1-1.185 0q-4.427-2.473-8.786-5.066a1.707 1.707 0 0 1-.7-1.2c-.079-1.689-.033-3.383-.033-5.076m.822.057c0 1.5.029 3.009-.014 4.512a1.281 1.281 0 0 0 .761 1.324c2.623 1.465 5.2 3.005 7.836 4.454a1.667 1.667 0 0 0 1.378.018q3.993-2.205 7.9-4.562a1.567 1.567 0 0 0 .676-1.1c.054-3.082.05-6.166.005-9.249a1.45 1.45 0 0 0-.567-1.057q-4.008-2.4-8.091-4.686a1.429 1.429 0 0 0-1.187 0c-2.69 1.5-5.362 3.031-8 4.622a1.725 1.725 0 0 0-.67 1.219c-.08 1.5-.031 3.006-.031 4.51"/><path data-name="Path 571" d="M20 40a20 20 0 1 1 20-20 20.023 20.023 0 0 1-20 20M20 .71A19.29 19.29 0 1 0 39.29 20 19.312 19.312 0 0 0 20 .71"/></g></svg>