<svg data-name="Group 809" xmlns="http://www.w3.org/2000/svg"><defs><clipPath id="a"><path data-name="Rectangle 1461" fill="currentColor" d="M0 0h40v40H0z"/></clipPath></defs><g data-name="Group 808" clip-path="url(#a)" fill="currentColor"><path data-name="Path 581" d="M31.656 20.385c-6.969.814-10.366 4.523-10.989 11.166h-1.364a12.259 12.259 0 0 0-3.168-7.841 10.683 10.683 0 0 0-7.744-3.273 11.238 11.238 0 0 1 9.841-11.885c9.022-1.022 13.571 5.815 13.424 11.833m-22.484-.826c5.878.721 9.431 4.2 10.828 10.116 1.388-5.959 4.963-9.4 10.742-10.15-.6-6.5-5-10.3-11.591-10.153a10.569 10.569 0 0 0-9.98 10.187"/><path data-name="Path 582" d="M20 40a20 20 0 1 1 20-20 20.022 20.022 0 0 1-20 20M20 .71A19.29 19.29 0 1 0 39.29 20 19.312 19.312 0 0 0 20 .71"/></g></svg>