<svg data-name="Group 811" xmlns="http://www.w3.org/2000/svg"><defs><clipPath id="a"><path data-name="Rectangle 1462" fill="currentColor" d="M0 0h40v40H0z"/></clipPath></defs><g data-name="Group 810" clip-path="url(#a)" fill="currentColor"><path data-name="Path 583" d="M28.355 31.34c-2.8-1.946-4.926-4.38-8.414-4.352-3.43.028-5.589 2.441-8.241 4.263a8.265 8.265 0 0 1-.046-1.045c-.006-5.49-.024-10.98.028-16.47a2.341 2.341 0 0 1 .733-1.466 21.346 21.346 0 0 1 2.48-1.947 8.69 8.69 0 0 1 10.041-.13c3.419 2.273 3.419 2.273 3.419 6.373V31.34m-.891-1.732v-13c0-3.572 0-3.572-2.955-5.592a7.709 7.709 0 0 0-8.982-.012 17.273 17.273 0 0 0-2.162 1.628 2.053 2.053 0 0 0-.842 1.685c.034 4.628.017 9.257.017 13.885v1.414c5.021-4.665 9.867-4.668 14.924-.007"/><path data-name="Path 584" d="M20 40a20 20 0 1 1 20-20 20.022 20.022 0 0 1-20 20M20 .71A19.29 19.29 0 1 0 39.29 20 19.312 19.312 0 0 0 20 .71"/></g></svg>