<svg data-name="Group 813" xmlns="http://www.w3.org/2000/svg"><defs><clipPath id="a"><path data-name="Rectangle 1463" fill="currentColor" d="M0 0h40v40H0z"/></clipPath></defs><g data-name="Group 812" clip-path="url(#a)" fill="currentColor"><path data-name="Path 585" d="M33.229 21.899c-2.237 1.362-4.435 2.712-6.657 4.015-.29.17-.7-.061-.984-.227-1.62-.949-3.2-1.973-4.84-2.88a1.665 1.665 0 0 0-1.377 0c-1.642.908-3.216 1.937-4.841 2.876a1.223 1.223 0 0 1-1.08.167c-2.188-1.288-4.352-2.617-6.68-4.037l6.855-4.167c1.893-1.15 3.774-2.324 5.7-3.425a1.539 1.539 0 0 1 1.287-.1c4.135 2.449 12.482 7.612 12.621 7.779m-1.7-.043c-.367-.259-.623-.463-.9-.631-3.213-1.949-6.445-3.867-9.631-5.859a1.549 1.549 0 0 0-1.912.032c-3.16 1.963-6.356 3.869-9.537 5.8-.3.182-.583.388-.977.651 1.606.979 3.07 1.825 4.481 2.752a1.281 1.281 0 0 0 1.617-.028c1.485-.955 3.041-1.8 4.509-2.781a1.429 1.429 0 0 1 1.811.032q2.275 1.463 4.626 2.808a1.337 1.337 0 0 0 1.091.126c1.6-.9 3.147-1.878 4.823-2.9"/><path data-name="Path 586" d="M20 40a20 20 0 1 1 20-20 20.022 20.022 0 0 1-20 20M20 .71A19.29 19.29 0 1 0 39.29 20 19.312 19.312 0 0 0 20 .71"/></g></svg>