<?xml version="1.0" encoding="utf-8"?>
<!-- Generator: Adobe Illustrator 25.2.3, SVG Export Plug-In . SVG Version: 6.00 Build 0)  -->
<svg version="1.1" id="Layer_1" xmlns="http://www.w3.org/2000/svg" xmlns:xlink="http://www.w3.org/1999/xlink" x="0px" y="0px"
	 viewBox="0 0 1023.8 277.5" style="enable-background:new 0 0 1023.8 277.5;" xml:space="preserve">
<style type="text/css">
	.st0{fill:#FFFFFF;}
</style>
<g>
	<path class="st0" d="M373.2,143.6l-1.8-2.2c-1.8-2.3-12.9-18-24.7-34.7c-8.9-12.5-17.5-24.7-20.7-29.2l0.5-0.1
		c25.4-1.7,42.1-15.9,42.6-36.2l0-1.8h0c-0.3-11-6.1-19.1-10.9-23.9c-8.5-8.5-22.8-13.1-40.3-13.1h-58.4v67.3h-20.3
		c-0.7-18.1-7.4-34.9-19-47.7c-13-14.2-31.2-22-51.3-22c-20.1,0-38.4,7.8-51.4,22c-11.8,12.8-18.5,29.7-19.1,47.9H9.5V11.2h90.9V2.4
		H0v141.3h9.5V78.8h88.9c1.2,17.2,7.8,33.1,18.9,45.3c13,14.2,31.2,22,51.3,22c20.1,0,38.3-7.8,51.4-22c11.2-12.2,17.9-28.2,19-45.4
		h20.4v66.7h9.5V78.6h46.4c1.2,1.6,4.7,6.6,9.3,13.2c18,25.6,35.6,50.6,36.2,51.4l0.5,0.5l2.6,0c1.8,0,4.3,0,6.5,0H373.2z
		 M229.6,73.4c0,36.4-26.1,63.8-60.6,63.8c-34.3,0-61.2-28.2-61.2-64.2v-0.4c0-36.3,26.1-63.7,60.8-63.8c34.2,0,61,28.2,61,64.2
		V73.4z M316.6,69.7h-47.7V11.5h48.4c24.6,0,41.9,11.8,41.9,28.7v0.3C358.9,58.4,342.7,69.6,316.6,69.7z"/>
	<path class="st0" d="M822.8,106.8c-8.9-12.5-17.5-24.7-20.7-29.2l0.5-0.1c25.4-1.7,42.1-15.9,42.6-36.2l0-1.8h0
		c-0.3-11-6.1-19.1-10.9-23.9c-8.5-8.5-22.8-13.1-40.3-13.1h-58.4v67.3h-55.3L649,2.4h-10.1l-66.1,142.9h10.9l18-39.7l4.5-9.5
		l1.6-3.5l6.4-13.9h58.9L681,96l4.5,9.5l18,39.7h11.6l-30.8-66.7h51.2v66.7h9.5V78.6h46.4c1.2,1.6,4.7,6.6,9.3,13.2
		c18,25.6,35.6,50.6,36.2,51.4l0.5,0.5l2.6,0c1.8,0,4.3,0,6.5,0h2.8l-1.8-2.2C845.7,139.1,834.5,123.4,822.8,106.8z M618.3,69.7
		l25.5-55.8l25.3,55.8H618.3z M792.7,69.7h-47.7V11.5h48.4c24.6,0,41.9,11.8,41.9,28.7v0.3C835,58.4,818.7,69.6,792.7,69.7z"/>
	<path class="st0" d="M914.9,2.4h-47v141.3h47c44.4,0,75.1-30.9,75.1-70.6v-0.4C990,32.9,959.3,2.4,914.9,2.4z M979.1,73.4
		c0,33.7-24.8,60.5-64.2,60.5h-36.5V12.1h36.5c39.3,0,64.2,27.4,64.2,60.9V73.4z"/>
	<polygon class="st0" points="447.4,143.6 488.5,21.7 529.7,143.6 538.1,143.6 589.1,2.2 578.2,2.2 534.1,127.2 492.9,1.8 
		484.9,1.8 443.8,127.2 399.6,2.2 388,2.2 439,143.6 	"/>
	<path class="st0" d="M1014.7,125.5c0-3.6-2.8-5.4-6.6-5.4h-7.8v17.2h3.3v-5.9h3.6l4.1,5.9h4l-4.6-6.5
		C1013,130.1,1014.7,128.4,1014.7,125.5z M1007.8,128.7h-4.2V123h4.2c2.2,0,3.5,1,3.5,2.8C1011.3,127.5,1010,128.7,1007.8,128.7z"/>
	<path class="st0" d="M1006.9,112c-9.4,0-16.9,7.8-16.9,17v0.1c0,9.2,7.4,16.9,16.9,16.9c9.4,0,16.9-7.8,16.9-17v-0.1
		C1023.8,119.7,1016.4,112,1006.9,112z M1021.9,129.1c0,8.3-6.5,15.2-15,15.2c-8.5,0-15-6.8-15-15.1v-0.1c0-8.3,6.5-15.2,15-15.2
		c8.6,0,15,6.8,15,15.1V129.1z"/>
	<polygon class="st0" points="314.7,243 288.1,203 279.7,203 279.7,276.2 287.8,276.2 287.8,217 314.4,256.2 314.8,256.2 
		341.5,216.9 341.5,276.2 349.8,276.2 349.8,203 341.4,203 	"/>
	<path class="st0" d="M388.6,221.3c-7.9,0-13.7,1.9-19.7,4.6l2.4,6.6c5-2.3,10-3.9,16.4-3.9c10.1,0,16,5,16,14.6v1.7
		c-4.8-1.4-9.6-2.3-16.5-2.3c-13.7,0-23.1,6.1-23.1,17.7v0.2c0,11.1,10,16.8,20.2,16.8c9.5,0,15.7-4.4,19.5-9.2v8.1h7.9v-33.1
		c0-6.9-1.9-12.1-5.6-15.9C402.2,223.4,396.2,221.3,388.6,221.3z M403.9,256.4c0,8.6-8.1,14.5-18,14.5c-7.3,0-13.6-4-13.6-10.8v-0.2
		c0-6.5,5.8-10.9,15.8-10.9c6.6,0,11.8,1.1,15.8,2.3V256.4z"/>
	<path class="st0" d="M437,205.9h-8.1v16.3h-7.5v7.1h7.5v32.6c0,11,6.6,15.3,15.3,15.3c3.9,0,6.9-0.8,9.7-2.3V268
		c-2.8,1.4-5.1,1.9-7.8,1.9c-5.4,0-9.1-2.4-9.1-9v-31.6h17.2v-7.1H437V205.9z"/>
	<path class="st0" d="M486.6,221c-15,0-25.9,12.5-25.9,28.2c0,16.8,12.1,28.2,27,28.2c10.3,0,16.8-4.1,22.3-10.1l-5-4.5
		c-4.4,4.6-9.6,7.6-17,7.6c-9.5,0-17.9-6.6-19-18h42.9c0.1-1.3,0.1-2.1,0.1-2.8C511.8,233.8,502.6,221,486.6,221z M468.8,246
		c1.2-10.5,8.3-18.2,17.6-18.2c10.7,0,16.3,8.4,17.3,18.2H468.8z"/>
	<path class="st0" d="M532.9,236.3v-14.1h-8.1v54.1h8.1v-21.5c0-16.3,9.6-24.8,21.4-24.8h0.6v-8.7
		C544.7,220.8,536.9,227.3,532.9,236.3z"/>
	<rect x="565" y="201.5" class="st0" width="9.2" height="8.9"/>
	<rect x="565.5" y="222.2" class="st0" width="8.1" height="54.1"/>
	<path class="st0" d="M610.4,221.3c-7.9,0-13.7,1.9-19.7,4.6l2.4,6.6c5-2.3,10-3.9,16.4-3.9c10.1,0,16,5,16,14.6v1.7
		c-4.8-1.4-9.6-2.3-16.5-2.3c-13.7,0-23.1,6.1-23.1,17.7v0.2c0,11.1,10,16.8,20.2,16.8c9.5,0,15.7-4.4,19.5-9.2v8.1h7.9v-33.1
		c0-6.9-1.9-12.1-5.6-15.9C624,223.4,618,221.3,610.4,221.3z M625.7,256.4c0,8.6-8.1,14.5-18,14.5c-7.3,0-13.6-4-13.6-10.8v-0.2
		c0-6.5,5.8-10.9,15.8-10.9c6.6,0,11.8,1.1,15.8,2.3V256.4z"/>
	<rect x="649.8" y="199.9" class="st0" width="8.1" height="76.4"/>
	<path class="st0" d="M694.1,245.4c-7.2-2.2-13.9-4.2-13.9-9.3v-0.2c0-4.5,4.1-7.8,10.5-7.8c5.2,0,11,2,16,5.2l3.7-6.1
		c-5.5-3.7-12.9-6-19.5-6c-10.7,0-18.4,6.2-18.4,15.5v0.2c0,9.9,9.4,12.9,17.9,15.3c7.1,2,13.5,4.1,13.5,9.5v0.2
		c0,5.2-4.7,8.6-11.2,8.6c-6.4,0-12.9-2.5-18.7-6.9l-4.1,5.8c6.1,4.9,14.6,7.9,22.4,7.9c10.8,0,19.2-6,19.2-16.2v-0.2
		C711.5,251.1,702.5,247.9,694.1,245.4z"/>
</g>
</svg>
